<svg width="291" height="63" viewBox="0 0 291 63" fill="none" xmlns="http://www.w3.org/2000/svg">
<path d="M33.3158 22.4935C34.8847 21.5878 37.4285 21.5878 38.9974 22.4935L69.4363 40.0659C71.0053 40.9716 71.0053 42.4402 69.4363 43.3459L38.9974 60.9183C37.4285 61.824 34.8847 61.824 33.3158 60.9183L2.87689 43.3459C1.30795 42.4402 1.30796 40.9716 2.8769 40.0659L33.3158 22.4935Z" fill="#171717"/>
<path d="M33.2797 12.5668C34.8486 11.661 37.3924 11.661 38.9613 12.5668L69.4002 30.1391C70.9691 31.0449 70.9691 32.5134 69.4002 33.4191L38.9613 50.9915C37.3924 51.8973 34.8486 51.8973 33.2797 50.9915L2.84076 33.4191C1.27182 32.5134 1.27182 31.0449 2.84076 30.1391L33.2797 12.5668Z" fill="#212121"/>
<path d="M33.2797 1.64C34.8486 0.734254 37.3924 0.734255 38.9613 1.64L69.4002 19.2124C70.9691 20.1181 70.9691 21.5866 69.4002 22.4924L38.9613 40.0648C37.3924 40.9705 34.8486 40.9705 33.2797 40.0648L2.84076 22.4924C1.27182 21.5866 1.27182 20.1181 2.84076 19.2124L33.2797 1.64Z" fill="#333333"/>
<path d="M98.3798 48L86.1378 17.7197H91.545L101.105 42.2467H99.2016L108.848 17.7197H114.169L101.84 48H98.3798ZM122.413 48.4326C120.539 48.4326 118.837 47.9567 117.309 47.0051C115.809 46.0534 114.612 44.7701 113.718 43.1551C112.853 41.5114 112.421 39.6801 112.421 37.6614C112.421 35.6139 112.853 33.7827 113.718 32.1677C114.612 30.5239 115.809 29.2262 117.309 28.2745C118.837 27.294 120.539 26.8038 122.413 26.8038C123.999 26.8038 125.398 27.1498 126.609 27.8419C127.849 28.5052 128.83 29.4281 129.551 30.6104C130.272 31.7928 130.632 33.1338 130.632 34.6334V40.6029C130.632 42.1025 130.272 43.4435 129.551 44.6259C128.858 45.8083 127.892 46.7455 126.652 47.4377C125.412 48.1009 123.999 48.4326 122.413 48.4326ZM123.192 43.9338C124.951 43.9338 126.364 43.3426 127.431 42.1602C128.527 40.9778 129.075 39.4638 129.075 37.6182C129.075 36.3781 128.83 35.2823 128.339 34.3306C127.849 33.3789 127.157 32.6435 126.263 32.1245C125.398 31.5765 124.374 31.3026 123.192 31.3026C122.038 31.3026 121.014 31.5765 120.12 32.1245C119.255 32.6435 118.563 33.3789 118.044 34.3306C117.554 35.2823 117.309 36.3781 117.309 37.6182C117.309 38.8582 117.554 39.9541 118.044 40.9057C118.563 41.8574 119.255 42.6072 120.12 43.1551C121.014 43.6742 122.038 43.9338 123.192 43.9338ZM128.772 48V42.4198L129.594 37.3586L128.772 32.3407V27.2363H133.53V48H128.772ZM153.043 48V36.0176C153.043 34.6334 152.596 33.4943 151.702 32.6003C150.837 31.7063 149.712 31.2593 148.328 31.2593C147.405 31.2593 146.583 31.4612 145.862 31.8649C145.141 32.2686 144.579 32.831 144.175 33.552C143.771 34.2729 143.569 35.0948 143.569 36.0176L141.709 34.9795C141.709 33.3933 142.055 31.9947 142.748 30.7835C143.44 29.5434 144.391 28.5773 145.603 27.8852C146.843 27.1642 148.227 26.8038 149.755 26.8038C151.313 26.8038 152.697 27.2075 153.908 28.015C155.119 28.7936 156.071 29.8174 156.763 31.0863C157.455 32.3263 157.801 33.624 157.801 34.9795V48H153.043ZM138.811 48V27.2363H143.569V48H138.811ZM172.197 48.4326C170.149 48.4326 168.289 47.9567 166.616 47.0051C164.972 46.0534 163.675 44.7557 162.723 43.1119C161.771 41.4681 161.296 39.6369 161.296 37.6182C161.296 35.5706 161.771 33.7394 162.723 32.1245C163.675 30.4807 164.972 29.1829 166.616 28.2313C168.289 27.2796 170.149 26.8038 172.197 26.8038C173.811 26.8038 175.311 27.121 176.695 27.7554C178.108 28.361 179.305 29.2406 180.286 30.3941L177.171 33.552C176.566 32.831 175.83 32.2975 174.965 31.9514C174.129 31.5765 173.206 31.3891 172.197 31.3891C171.014 31.3891 169.962 31.663 169.039 32.211C168.145 32.7301 167.438 33.451 166.919 34.3738C166.429 35.2967 166.184 36.3781 166.184 37.6182C166.184 38.8294 166.429 39.9108 166.919 40.8625C167.438 41.7853 168.145 42.5207 169.039 43.0686C169.962 43.5877 171.014 43.8473 172.197 43.8473C173.206 43.8473 174.129 43.6742 174.965 43.3282C175.83 42.9533 176.566 42.4053 177.171 41.6844L180.286 44.8422C179.305 45.9957 178.108 46.8897 176.695 47.5242C175.311 48.1298 173.811 48.4326 172.197 48.4326ZM192.81 48.4326C190.792 48.4326 188.961 47.9567 187.317 47.0051C185.673 46.0246 184.361 44.7124 183.38 43.0686C182.429 41.4248 181.953 39.5936 181.953 37.5749C181.953 35.5562 182.429 33.7394 183.38 32.1245C184.361 30.5095 185.673 29.2262 187.317 28.2745C188.961 27.294 190.792 26.8038 192.81 26.8038C194.858 26.8038 196.704 27.2796 198.347 28.2313C199.991 29.1829 201.289 30.4807 202.241 32.1245C203.221 33.7394 203.711 35.5562 203.711 37.5749C203.711 39.5936 203.221 41.4248 202.241 43.0686C201.289 44.7124 199.991 46.0246 198.347 47.0051C196.704 47.9567 194.858 48.4326 192.81 48.4326ZM192.81 43.8473C193.993 43.8473 195.031 43.5877 195.925 43.0686C196.848 42.5207 197.554 41.7709 198.045 40.8192C198.564 39.8676 198.823 38.7861 198.823 37.5749C198.823 36.3637 198.564 35.2967 198.045 34.3738C197.526 33.451 196.819 32.7301 195.925 32.211C195.031 31.663 193.993 31.3891 192.81 31.3891C191.657 31.3891 190.619 31.663 189.696 32.211C188.802 32.7301 188.095 33.451 187.576 34.3738C187.086 35.2967 186.841 36.3637 186.841 37.5749C186.841 38.7861 187.086 39.8676 187.576 40.8192C188.095 41.7709 188.802 42.5207 189.696 43.0686C190.619 43.5877 191.657 43.8473 192.81 43.8473ZM216.19 48.4326C214.431 48.4326 212.859 48.0433 211.475 47.2646C210.12 46.486 209.053 45.419 208.274 44.0636C207.524 42.6793 207.149 41.0932 207.149 39.3052V27.2363H211.908V39.0889C211.908 40.0983 212.066 40.9634 212.384 41.6844C212.73 42.3765 213.22 42.91 213.854 43.2849C214.518 43.6598 215.296 43.8473 216.19 43.8473C217.574 43.8473 218.627 43.4435 219.348 42.6361C220.098 41.7997 220.473 40.6174 220.473 39.0889V27.2363H225.231V39.3052C225.231 41.122 224.842 42.7226 224.063 44.1068C223.313 45.4622 222.261 46.5292 220.905 47.3079C219.55 48.0577 217.978 48.4326 216.19 48.4326ZM237.023 48L227.55 27.2363H232.827L240.051 44.1501H236.937L244.204 27.2363H249.265L239.792 48H237.023ZM261.037 48.4326C258.961 48.4326 257.086 47.9712 255.414 47.0483C253.77 46.0967 252.458 44.7989 251.477 43.1551C250.526 41.5114 250.05 39.6657 250.05 37.6182C250.05 35.5706 250.526 33.7394 251.477 32.1245C252.429 30.4807 253.712 29.1829 255.327 28.2313C256.971 27.2796 258.788 26.8038 260.778 26.8038C262.71 26.8038 264.411 27.2508 265.882 28.1448C267.382 29.0387 268.55 30.2644 269.386 31.8216C270.251 33.3789 270.684 35.1525 270.684 37.1423C270.684 37.4884 270.655 37.8489 270.597 38.2238C270.568 38.5698 270.511 38.9592 270.424 39.3917H253.381V35.4985H267.958L266.185 37.0558C266.127 35.7869 265.882 34.7199 265.449 33.8548C265.017 32.9896 264.397 32.3263 263.589 31.8649C262.811 31.4035 261.845 31.1728 260.691 31.1728C259.48 31.1728 258.427 31.4323 257.533 31.9514C256.639 32.4705 255.947 33.2059 255.457 34.1576C254.967 35.0804 254.722 36.1907 254.722 37.4884C254.722 38.7861 254.981 39.9252 255.5 40.9057C256.019 41.8863 256.755 42.6505 257.706 43.1984C258.658 43.7175 259.754 43.977 260.994 43.977C262.061 43.977 263.041 43.7896 263.935 43.4147C264.858 43.0398 265.637 42.4919 266.271 41.7709L269.299 44.8422C268.29 46.0246 267.064 46.9186 265.623 47.5242C264.181 48.1298 262.652 48.4326 261.037 48.4326ZM274.498 48V27.2363H279.256V48H274.498ZM279.256 36.4502L277.613 35.6283C277.613 33.004 278.189 30.8844 279.343 29.2694C280.525 27.6257 282.299 26.8038 284.664 26.8038C285.702 26.8038 286.639 26.9912 287.475 27.3661C288.312 27.741 289.09 28.3466 289.811 29.1829L286.697 32.384C286.322 31.9803 285.904 31.6919 285.442 31.5188C284.981 31.3458 284.447 31.2593 283.842 31.2593C282.515 31.2593 281.419 31.6775 280.554 32.5138C279.689 33.3501 279.256 34.6622 279.256 36.4502Z" fill="url(#paint0_linear_37_536)"/>
<defs>
<linearGradient id="paint0_linear_37_536" x1="84.6675" y1="30.7142" x2="290.668" y2="30.7142" gradientUnits="userSpaceOnUse">
<stop stop-color="#DEC880"/>
<stop offset="0.155674" stop-color="white"/>
<stop offset="0.567708" stop-color="#FF347D"/>
<stop offset="1" stop-color="#827DED"/>
</linearGradient>
</defs>
</svg>
