<svg xmlns="http://www.w3.org/2000/svg" width="120" height="120" viewBox="0 0 120 120">
  <g id="Gruppe_3324" data-name="Gruppe 3324" transform="translate(-946 -186)">
    <circle id="Ellipse_252" data-name="Ellipse 252" cx="60" cy="60" r="60" transform="translate(946 186)" fill="#7ddced"/>
    <g id="credit-card" transform="translate(970.164 205.043)">
      <path id="Pfad_6601" data-name="Pfad 6601" d="M68.235,20.221,16.9,11.065a4.205,4.205,0,0,0-4.825,3.407L8.769,33.438H4.046A4.051,4.051,0,0,0,0,37.484V65.911a4.051,4.051,0,0,0,4.046,4.046h52.36a4.051,4.051,0,0,0,4.046-4.046v-10c1.5.268,2.948.583,4.334-.246a4.262,4.262,0,0,0,2-2.892l4.828-27.7A4.2,4.2,0,0,0,68.235,20.221ZM14.353,14.868a1.875,1.875,0,0,1,2.142-1.528L67.829,22.5a1.884,1.884,0,0,1,1.5,2.187l-.8,4.572L13.554,19.449ZM58.14,65.911a1.736,1.736,0,0,1-1.734,1.734H4.046a1.736,1.736,0,0,1-1.734-1.734V37.484A1.736,1.736,0,0,1,4.046,35.75h52.36a1.736,1.736,0,0,1,1.734,1.734ZM64.5,52.38c-.36,2.056-2.643,1.438-4.052,1.187V37.484a4.051,4.051,0,0,0-4.046-4.046H11.116l2.041-11.712,3.349.6,51.632,9.209Z"/>
      <path id="Pfad_6602" data-name="Pfad 6602" d="M41.422,99.315H34.775a1.156,1.156,0,1,1,0-2.312h6.647a1.156,1.156,0,1,1,0,2.312Z" transform="translate(-14.187 -36.292)"/>
      <path id="Pfad_6603" data-name="Pfad 6603" d="M19.574,99.315H12.927a1.156,1.156,0,1,1,0-2.312h6.647a1.156,1.156,0,1,1,0,2.312Z" transform="translate(-4.967 -36.292)"/>
      <path id="Pfad_6604" data-name="Pfad 6604" d="M63.27,99.315H56.623a1.156,1.156,0,1,1,0-2.312H63.27a1.156,1.156,0,1,1,0,2.312Z" transform="translate(-23.407 -36.292)"/>
      <path id="Pfad_6605" data-name="Pfad 6605" d="M85.119,99.315H78.472a1.156,1.156,0,1,1,0-2.312h6.647a1.156,1.156,0,1,1,0,2.312Z" transform="translate(-32.627 -36.292)"/>
      <path id="Pfad_6606" data-name="Pfad 6606" d="M22.215,83.983H13.842a2.893,2.893,0,0,1-2.89-2.89v-3.32a2.893,2.893,0,0,1,2.89-2.89h8.373a2.893,2.893,0,0,1,2.89,2.89v3.32A2.894,2.894,0,0,1,22.215,83.983Zm-8.373-6.789a.579.579,0,0,0-.578.578v3.32a.579.579,0,0,0,.578.578h8.373a.579.579,0,0,0,.578-.578v-3.32a.579.579,0,0,0-.578-.578Z" transform="translate(-4.622 -26.958)"/>
    </g>
  </g>
</svg>
