<svg xmlns="http://www.w3.org/2000/svg" width="120" height="120" viewBox="0 0 120 120">
  <g id="Gruppe_3323" data-name="Gruppe 3323" transform="translate(-769 -186)">
    <circle id="Ellipse_251" data-name="Ellipse 251" cx="60" cy="60" r="60" transform="translate(769 186)" fill="#e29c00"/>
    <g id="g867" transform="translate(783.415 867.499)">
      <g id="g869" transform="translate(6.109 -663.499)">
        <g id="Gruppe_3319" data-name="Gruppe 3319">
          <g id="g877" transform="translate(53.485 20.375)">
            <path id="path879" d="M0,0H15.281A3.82,3.82,0,0,1,19.1,3.82V48.391" transform="translate(0 0)" fill="none" stroke="#000" stroke-linecap="round" stroke-linejoin="round" stroke-miterlimit="10" stroke-width="2"/>
          </g>
          <g id="g881" transform="translate(6.367 20.375)">
            <path id="path883" d="M0-357.759v-44.571a3.82,3.82,0,0,1,3.82-3.82H19.1" transform="translate(0 406.15)" fill="none" stroke="#000" stroke-linecap="round" stroke-linejoin="round" stroke-miterlimit="10" stroke-width="2"/>
          </g>
          <g id="g885" transform="translate(0 68.766)">
            <path id="path887" d="M-160.053,0h57.3V2.547A2.547,2.547,0,0,1-105.3,5.094h-73.86A2.547,2.547,0,0,1-181.7,2.547V0h16.554" transform="translate(181.702 0)" fill="none" stroke="#000" stroke-linecap="round" stroke-linejoin="round" stroke-miterlimit="10" stroke-width="2"/>
          </g>
          <g id="g889" transform="translate(30.563)">
            <path id="path891" d="M-96.319-282.441A30.618,30.618,0,0,0-91.519-299a30.293,30.293,0,0,0-8.914-21.648A30.294,30.294,0,0,0-109.348-299a30.618,30.618,0,0,0,4.8,16.555Z" transform="translate(109.348 320.645)" fill="none" stroke="#000" stroke-linecap="round" stroke-linejoin="round" stroke-miterlimit="10" stroke-width="2"/>
          </g>
          <g id="g893" transform="translate(34.383 38.203)">
            <path id="path895" d="M-75.318-37.658H-85.505l1.273-5.094h7.641Z" transform="translate(85.505 42.752)" fill="none" stroke="#000" stroke-linecap="round" stroke-linejoin="round" stroke-miterlimit="10" stroke-width="2"/>
          </g>
          <g id="g897" transform="translate(24.195 28.016)">
            <path id="path899" d="M-47.074,0l-5.482,6.578a3.821,3.821,0,0,0-.885,2.446v3.711l9.071-5.118" transform="translate(53.441)" fill="none" stroke="#000" stroke-linecap="round" stroke-linejoin="round" stroke-miterlimit="10" stroke-width="2"/>
          </g>
          <g id="g901" transform="translate(45.687 28.016)">
            <path id="path903" d="M-19.987,0l5.482,6.578a3.821,3.821,0,0,1,.885,2.446v3.711l-9.071-5.118" transform="translate(22.691)" fill="none" stroke="#000" stroke-linecap="round" stroke-linejoin="round" stroke-miterlimit="10" stroke-width="2"/>
          </g>
          <g id="g905" transform="translate(33.11 10.188)">
            <path id="path907" d="M0,0H12.734" fill="none" stroke="#000" stroke-linecap="round" stroke-linejoin="round" stroke-miterlimit="10" stroke-width="2"/>
          </g>
          <g id="g909" transform="translate(12.734 48.391)">
            <path id="path911" d="M-392.652-150.635a8.906,8.906,0,0,0,.374-2.547,8.914,8.914,0,0,0-8.914-8.914,8.882,8.882,0,0,0-2.914.5,6.347,6.347,0,0,0-6-4.318,6.309,6.309,0,0,0-4.074,1.512,5.039,5.039,0,0,0,.254-1.512,5.094,5.094,0,0,0-5.094-5.094,5.094,5.094,0,0,0-5.094,5.094,5.039,5.039,0,0,0,.254,1.512,6.309,6.309,0,0,0-4.074-1.512,6.347,6.347,0,0,0-6,4.318,8.883,8.883,0,0,0-2.914-.5,8.914,8.914,0,0,0-8.914,8.914,8.91,8.91,0,0,0,.374,2.547" transform="translate(445.763 171.01)" fill="none" stroke="#000" stroke-linecap="round" stroke-linejoin="round" stroke-miterlimit="10" stroke-width="2"/>
          </g>
          <g id="g913" transform="translate(35.656 16.555)">
            <path id="path915" d="M-56.488-28.244a3.82,3.82,0,0,1-3.82,3.82,3.82,3.82,0,0,1-3.82-3.82,3.82,3.82,0,0,1,3.82-3.82A3.82,3.82,0,0,1-56.488-28.244Z" transform="translate(64.129 32.064)" fill="none" stroke="#000" stroke-linecap="round" stroke-linejoin="round" stroke-miterlimit="10" stroke-width="2"/>
          </g>
        </g>
      </g>
    </g>
  </g>
</svg>
