<svg id="twitter_1_" data-name="twitter (1)" xmlns="http://www.w3.org/2000/svg" width="62.88" height="51.09" viewBox="0 0 62.88 51.09">
  <g id="Gruppe_3327" data-name="Gruppe 3327" transform="translate(0 0)">
    <path id="Pfad_6614" data-name="Pfad 6614" d="M62.88,54.048a26.876,26.876,0,0,1-7.428,2.036,12.818,12.818,0,0,0,5.671-7.125,25.762,25.762,0,0,1-8.174,3.12,12.89,12.89,0,0,0-22.3,8.815,13.274,13.274,0,0,0,.3,2.94A36.488,36.488,0,0,1,4.378,50.35,12.894,12.894,0,0,0,8.339,67.579a12.731,12.731,0,0,1-5.824-1.588v.141A12.95,12.95,0,0,0,12.843,78.8a12.866,12.866,0,0,1-3.38.424A11.4,11.4,0,0,1,7.023,79a13.014,13.014,0,0,0,12.045,8.98,25.9,25.9,0,0,1-15.983,5.5A24.144,24.144,0,0,1,0,93.3,36.291,36.291,0,0,0,19.776,99.09c23.721,0,36.69-19.65,36.69-36.683,0-.57-.02-1.12-.047-1.666A25.717,25.717,0,0,0,62.88,54.048Z" transform="translate(0 -48)" fill="#fff"/>
  </g>
</svg>
