<svg xmlns="http://www.w3.org/2000/svg" width="120" height="120" viewBox="0 0 120 120">
  <g id="Gruppe_3321" data-name="Gruppe 3321" transform="translate(-427 -186)">
    <circle id="Ellipse_249" data-name="Ellipse 249" cx="60" cy="60" r="60" transform="translate(427 186)" fill="#ff71a4"/>
    <path id="blockchain" d="M73.548,17.165c-.005-.031,0-.064-.012-.095a1.01,1.01,0,0,0-.1-.241.786.786,0,0,0-.054-.071,1,1,0,0,0-.105-.137c-.024-.024-.054-.041-.08-.063a.993.993,0,0,0-.123-.1l-.007,0-.006,0L64.625,11.62a1.01,1.01,0,0,0-1,0l-8.442,4.833-.006,0-.008,0a1,1,0,0,0-.124.1.724.724,0,0,0-.079.062,1,1,0,0,0-.106.139c-.017.024-.038.044-.053.07a1.011,1.011,0,0,0-.1.241c-.008.029-.007.061-.012.091a.991.991,0,0,0-.022.168v2.057l-7.508-4.7a.988.988,0,0,0,.021-.153V6.091a.992.992,0,0,0-.022-.165c-.005-.031,0-.064-.012-.095a1.009,1.009,0,0,0-.1-.24,1.02,1.02,0,0,0-.065-.087,1,1,0,0,0-.093-.122,1.032,1.032,0,0,0-.1-.075.992.992,0,0,0-.108-.085h-.006l0-.009L38.236.381a1.01,1.01,0,0,0-1,0L28.79,5.215l-.007.005h-.006a.992.992,0,0,0-.109.085,1.028,1.028,0,0,0-.1.074,1,1,0,0,0-.094.123,1.025,1.025,0,0,0-.064.085,1.009,1.009,0,0,0-.1.241c-.008.029-.007.061-.012.091a.992.992,0,0,0-.022.168v8.443a.989.989,0,0,0,.021.154l-7.506,4.7V17.33a.992.992,0,0,0-.022-.165c-.005-.031,0-.064-.012-.095a1.009,1.009,0,0,0-.1-.241.79.79,0,0,0-.054-.071,1,1,0,0,0-.105-.137c-.024-.024-.054-.041-.08-.063a.993.993,0,0,0-.123-.1l-.008,0-.006,0L11.849,11.62a1.01,1.01,0,0,0-1,0l-8.44,4.833-.006,0-.008,0a1,1,0,0,0-.124.1.724.724,0,0,0-.079.062,1,1,0,0,0-.106.139c-.017.024-.038.044-.053.07a1.012,1.012,0,0,0-.1.241c-.008.029-.007.061-.012.091a.992.992,0,0,0-.022.168v8.44a1.01,1.01,0,0,0,.526.886l7.914,4.322V42.54L2.405,47.083l-.006,0-.008,0a1,1,0,0,0-.124.1.725.725,0,0,0-.079.062,1,1,0,0,0-.106.139c-.017.024-.038.044-.053.07a1.012,1.012,0,0,0-.1.241c-.008.029-.007.061-.012.091a.992.992,0,0,0-.022.168V56.4a1.01,1.01,0,0,0,.527.886l8.439,4.607a.994.994,0,0,0,.147.058.852.852,0,0,0,.08.031.976.976,0,0,0,.513,0c.028-.007.053-.022.08-.031a.994.994,0,0,0,.147-.058L19,57.98l9.291,6.185v4.185a1.01,1.01,0,0,0,.526.886l8.439,4.607a1,1,0,0,0,.147.058.853.853,0,0,0,.08.031.976.976,0,0,0,.513,0c.028-.007.053-.022.08-.031a.994.994,0,0,0,.147-.058l8.437-4.608a1.01,1.01,0,0,0,.526-.886V64.164l9.291-6.185,7.166,3.912a1,1,0,0,0,.147.058.852.852,0,0,0,.08.031.976.976,0,0,0,.513,0c.028-.007.053-.022.08-.031a.994.994,0,0,0,.147-.058l8.437-4.605a1.01,1.01,0,0,0,.526-.886V47.959a.991.991,0,0,0-.022-.165c-.005-.031,0-.064-.012-.095a1.009,1.009,0,0,0-.1-.241.792.792,0,0,0-.054-.071,1,1,0,0,0-.105-.137c-.024-.024-.054-.041-.08-.063a.993.993,0,0,0-.123-.1l-.007,0-.006,0L65.13,42.541V30.977l7.914-4.32a1.01,1.01,0,0,0,.526-.886V17.33a.992.992,0,0,0-.021-.165Zm-29.7,42.867-6.112,3.337-6.112-3.337-.259-.141,6.371-3.648L44.1,59.888ZM18.776,25.17l-6.42,3.5V22.536l6.42-3.5Zm-7.43,19.119,6.371,3.648-.259.141-6.112,3.337L5.235,48.079l-.259-.141ZM19.7,46.746,12.357,42.54V30.977l6.69-3.652,9.238,6.011V40.7ZM30.3,13.932V7.793l6.42,3.506v6.136Zm14.859,0-6.42,3.5V11.3l6.42-3.505Zm-7.43,15.186L44.1,32.766l-.259.141-6.112,3.337-6.112-3.337-.259-.141ZM30.3,34.49l6.42,3.5v6.14L30.3,40.628Zm8.439,3.5,6.42-3.5v6.139l-6.42,3.506Zm8.439-4.659,9.238-6.012,6.69,3.654V42.54l-7.345,4.207L47.183,40.7Zm15.927-10.8v6.138l-6.419-3.5V19.032ZM56.691,55.8V49.661l6.42,3.5V59.3Zm13.542-7.721-6.112,3.337-6.113-3.337-.259-.141,6.371-3.648,6.371,3.648ZM64.121,13.66l6.371,3.648-.259.141-6.112,3.337-6.113-3.337-.259-.141ZM54.707,26.028,46.14,31.6l-7.4-4.236V19.737l6.775-3.7,9.153,5.731v4a1.007,1.007,0,0,0,.036.26ZM37.734,2.422,44.1,6.07,38.013,9.4l-.279.152L37.455,9.4,31.364,6.07ZM29.949,16.04l6.775,3.7v7.63l-7.4,4.236-8.567-5.576a1.008,1.008,0,0,0,.035-.26v-4Zm-18.6-2.38,6.371,3.648-.259.141-6.112,3.337L5.235,17.449l-.259-.141ZM3.918,19.032l6.42,3.5v6.138l-6.42-3.5Zm0,30.63,6.42,3.5V59.3l-6.42-3.5Zm8.439,3.5,6.42-3.5V55.8l-6.42,3.5Zm8.382,3.548A1,1,0,0,0,20.8,56.4V48.446l8.564-6.031,7.362,4.019v8.059L28.79,59.035l-.006,0-.008,0a1,1,0,0,0-.124.1.725.725,0,0,0-.079.062,1,1,0,0,0-.106.139c-.017.024-.038.044-.053.07a1.012,1.012,0,0,0-.1.241c-.008.029-.007.061-.012.091a.992.992,0,0,0-.022.168v1.827ZM30.3,63.619V61.613l6.42,3.5v6.138l-6.42-3.5Zm8.439,7.636V65.118l6.42-3.5v6.139Zm8.439-11.344a.992.992,0,0,0-.022-.165c-.005-.031,0-.064-.012-.095a1.009,1.009,0,0,0-.1-.241A.79.79,0,0,0,47,59.34a1,1,0,0,0-.105-.137c-.024-.024-.054-.041-.08-.063a.992.992,0,0,0-.123-.1l-.008,0-.006,0-7.931-4.543V46.434l7.362-4.019,8.566,6.031V56.4a1,1,0,0,0,.058.316l-7.544,5.024ZM65.13,59.3V53.166l6.42-3.5V55.8Zm0-30.63V22.536l6.42-3.5V25.17Z" transform="translate(449.267 208.893)"/>
  </g>
</svg>
