<svg xmlns="http://www.w3.org/2000/svg" width="120" height="120" viewBox="0 0 120 120">
  <g id="Gruppe_3322" data-name="Gruppe 3322" transform="translate(-600 -186)">
    <circle id="Ellipse_250" data-name="Ellipse 250" cx="60" cy="60" r="60" transform="translate(600 186)" fill="#7d7ded"/>
    <g id="chart" transform="translate(627.994 209)">
      <path id="Pfad_6597" data-name="Pfad 6597" d="M118.655,104a1.231,1.231,0,0,1,1.231,1.231v6.155h3.693a1.231,1.231,0,0,1,1.231,1.231v32.006a1.231,1.231,0,0,1-1.231,1.231h-3.693v4.924a1.231,1.231,0,0,1-2.462,0v-4.924h-3.693a1.231,1.231,0,0,1-1.231-1.231V112.617a1.231,1.231,0,0,1,1.231-1.231h3.693v-6.155A1.231,1.231,0,0,1,118.655,104Zm-3.693,9.848v29.544h7.386V113.848Zm0,0" transform="translate(-78.032 -87.997)"/>
      <path id="Pfad_6598" data-name="Pfad 6598" d="M230.655,72a1.231,1.231,0,0,1,1.231,1.231v6.155h3.693a1.231,1.231,0,0,1,1.231,1.231v32.006a1.231,1.231,0,0,1-1.231,1.231h-3.693v4.924a1.231,1.231,0,1,1-2.462,0v-4.924h-3.693a1.231,1.231,0,0,1-1.231-1.231V80.617a1.231,1.231,0,0,1,1.231-1.231h3.693V73.231A1.231,1.231,0,0,1,230.655,72Zm-3.693,9.848v29.544h7.386V81.848Zm0,0" transform="translate(-207.266 -60.921)"/>
      <path id="Pfad_6599" data-name="Pfad 6599" d="M342.655,168a1.231,1.231,0,0,1,1.231,1.231v6.155h3.693a1.231,1.231,0,0,1,1.231,1.231v32.006a1.231,1.231,0,0,1-1.231,1.231h-3.693v4.924a1.231,1.231,0,1,1-2.462,0v-4.924h-3.693a1.231,1.231,0,0,1-1.231-1.231V176.617a1.231,1.231,0,0,1,1.231-1.231h3.693v-6.155A1.231,1.231,0,0,1,342.655,168Zm-3.693,9.848v29.544h7.386V177.848Zm0,0" transform="translate(-336.5 -142.149)"/>
      <path id="Pfad_6600" data-name="Pfad 6600" d="M6.655,0A1.231,1.231,0,0,1,7.886,1.231V7.386h3.693A1.231,1.231,0,0,1,12.81,8.617V40.623a1.231,1.231,0,0,1-1.231,1.231H7.886v4.924a1.231,1.231,0,0,1-2.462,0V41.854H1.731A1.231,1.231,0,0,1,.5,40.623V8.617A1.231,1.231,0,0,1,1.731,7.386H5.424V1.231A1.231,1.231,0,0,1,6.655,0ZM2.962,9.848V39.392h7.386V9.848Zm0,0" transform="translate(51.202)"/>
    </g>
  </g>
</svg>
