<svg xmlns="http://www.w3.org/2000/svg" width="120" height="120" viewBox="0 0 120 120">
  <g id="Gruppe_3325" data-name="Gruppe 3325" transform="translate(-946 -372)">
    <circle id="Ellipse_253" data-name="Ellipse 253" cx="60" cy="60" r="60" transform="translate(946 372)" fill="#c2ed7d"/>
    <g id="reverse-arrow" transform="translate(956.564 383.957)">
      <path id="Pfad_6607" data-name="Pfad 6607" d="M44.482,70.16a1.723,1.723,0,0,0-2.688-.052C33.521,80.04,24.455,88.1,12.383,86.029a1.727,1.727,0,0,0-1.978,1.294l-.009.037a1.728,1.728,0,0,0,1.375,2.107,25.874,25.874,0,0,0,4.412.385c11.579,0,20.493-8.17,28.285-17.5a1.727,1.727,0,0,0,.036-2.16Z" transform="translate(0 -17.614)"/>
      <path id="Pfad_6608" data-name="Pfad 6608" d="M67.918,43.447a1.723,1.723,0,0,0,2.709-.006c8.042-10.281,15.92-19.179,25.8-17.969l-7.558,7.557a1.815,1.815,0,0,0-.169,2.43,1.752,1.752,0,0,0,1.337.628,1.718,1.718,0,0,0,1.229-.517l10.746-10.746a1.746,1.746,0,0,0,0-2.471L91.339,11.674a1.815,1.815,0,0,0-2.451-.16,1.753,1.753,0,0,0-.09,2.556l7.9,7.911C85.111,20.6,76.264,30.57,67.883,41.278a1.73,1.73,0,0,0,.009,2.137Z" transform="translate(-17.25)"/>
      <path id="Pfad_6609" data-name="Pfad 6609" d="M84.764,76.732,74.017,65.983a1.746,1.746,0,1,0-2.469,2.469l7.628,7.629C68.312,77.415,59.86,66.5,50.955,54.992,40.685,41.707,29.086,26.708,11.783,29.7a1.732,1.732,0,0,0-1.38,2.109l.009.038a1.727,1.727,0,0,0,1.979,1.292C27.628,30.526,38.082,44.043,48.2,57.127c8.606,11.129,17.464,22.585,29.113,22.585a18.2,18.2,0,0,0,2.147-.14l-7.913,7.913a1.745,1.745,0,0,0,2.468,2.468L84.763,79.2a1.746,1.746,0,0,0,0-2.469Z" transform="translate(-0.002 -5.492)"/>
    </g>
  </g>
</svg>
