<svg xmlns="http://www.w3.org/2000/svg" width="120" height="120" viewBox="0 0 120 120">
  <g id="Gruppe_3320" data-name="Gruppe 3320" transform="translate(-253 -186)">
    <circle id="Ellipse_248" data-name="Ellipse 248" cx="60" cy="60" r="60" transform="translate(253 186)" fill="#cbaf53"/>
    <g id="layers" transform="translate(276.14 209.14)">
      <g id="Gruppe_3318" data-name="Gruppe 3318" transform="translate(0 0.001)">
        <path id="Pfad_6596" data-name="Pfad 6596" d="M73.72,36.858a4.955,4.955,0,0,0-2.49-4.276l-4.1-2.415,4.108-2.442a4.915,4.915,0,0,0,0-8.546C66.1,16.129,48.7,5.789,40.126.872a6.554,6.554,0,0,0-6.548.01s-23.325,13.7-31.087,18.3a4.916,4.916,0,0,0,0,8.549l4.107,2.44-4.1,2.414a4.916,4.916,0,0,0,0,8.549l4.107,2.44-4.1,2.414a4.916,4.916,0,0,0,0,8.549c6.64,3.948,22.959,13.637,31.107,18.308a6.53,6.53,0,0,0,6.535,0c8.145-4.67,24.464-14.358,31.1-18.308a4.914,4.914,0,0,0,0-8.548l-4.1-2.415,4.108-2.442A4.965,4.965,0,0,0,73.72,36.858ZM4.2,24.852a1.659,1.659,0,0,1-.851-1.4A1.641,1.641,0,0,1,4.2,22.064C11.951,17.473,35.243,3.793,35.24,3.795a3.181,3.181,0,0,1,3.22-.011c8.554,4.9,25.937,15.231,31.058,18.278a1.569,1.569,0,0,1,0,2.79c-6.63,3.943-22.929,13.621-31.055,18.278a3.194,3.194,0,0,1-3.2,0C27.131,38.472,10.831,28.794,4.2,24.852ZM69.521,48.871a1.567,1.567,0,0,1,0,2.786C62.888,55.6,46.588,65.279,38.463,69.936a3.194,3.194,0,0,1-3.2,0C27.131,65.279,10.831,55.6,4.2,51.66a1.659,1.659,0,0,1-.851-1.4A1.641,1.641,0,0,1,4.2,48.871l5.686-3.346c7.685,4.555,17.823,10.541,23.71,13.915a6.531,6.531,0,0,0,6.535,0c5.884-3.374,16.021-9.358,23.706-13.914Zm0-10.617C62.888,42.2,46.588,51.876,38.463,56.532a3.194,3.194,0,0,1-3.2,0C27.131,51.875,10.831,42.2,4.2,38.256a1.659,1.659,0,0,1-.851-1.4A1.641,1.641,0,0,1,4.2,35.468l5.686-3.346c7.685,4.555,17.823,10.541,23.71,13.915a6.531,6.531,0,0,0,6.535,0c5.884-3.374,16.021-9.358,23.706-13.914l5.686,3.346a1.567,1.567,0,0,1,0,2.786Z" transform="translate(0 -0.001)"/>
      </g>
    </g>
  </g>
</svg>
