<svg width="120" height="84" viewBox="0 0 120 84" fill="none" xmlns="http://www.w3.org/2000/svg">
<path d="M117.499 13.1149C116.125 7.96055 112.059 3.89437 106.885 2.5008C97.531 9.10284e-07 60 0 60 0C60 0 22.4881 9.10284e-07 13.1149 2.5008C7.96055 3.87528 3.89437 7.94146 2.5008 13.1149C0 22.469 0 41.9981 0 41.9981C0 41.9981 0 61.5272 2.5008 70.8813C3.87528 76.0356 7.94146 80.1018 13.1149 81.4954C22.4881 83.9962 60 83.9962 60 83.9962C60 83.9962 97.531 83.9962 106.885 81.4954C112.039 80.1209 116.106 76.0547 117.499 70.8813C120 61.5272 120 41.9981 120 41.9981C120 41.9981 120 22.469 117.499 13.1149Z" fill="#FF0000"/>
<path d="M48.0115 60L79.1855 41.9981L48.0115 23.9962V60Z" fill="white"/>
</svg>
